<svg width="65" height="65" viewBox="0 0 65 65" fill="none" xmlns="http://www.w3.org/2000/svg">
<path d="M12.0884 13.3817C10.9035 13.3817 9.73372 13.9854 8.89075 15.1094C8.04778 16.2334 7.51807 17.8673 7.51807 19.9832H8.53369C8.53369 18.0366 9.02159 16.6257 9.70206 15.7184C10.3825 14.8111 11.242 14.3973 12.0884 14.3973C12.9347 14.3973 13.7962 14.8111 14.4767 15.7184C15.1572 16.6257 15.6431 18.0366 15.6431 19.9832V44.866H49.0179L57.4821 19.4754H24.2759V20.491H56.0737L48.2859 43.8504H16.6587V19.9832C16.6587 17.8673 16.131 16.2334 15.288 15.1094C14.445 13.9854 13.2733 13.3817 12.0884 13.3817Z" fill="#FCC89F"/>
<path d="M20.2133 45.2251C18.4539 45.2251 17.0177 46.6613 17.0177 48.4207C17.0177 50.1802 18.4539 51.6183 20.2133 51.6183C21.9728 51.6183 23.411 50.1802 23.411 48.4207C23.411 46.6613 21.9728 45.2251 20.2133 45.2251ZM20.2133 46.2407C21.4239 46.2407 22.3954 47.2101 22.3954 48.4207C22.3954 49.6313 21.4239 50.6027 20.2133 50.6027C19.0028 50.6027 18.0333 49.6313 18.0333 48.4207C18.0333 47.2101 19.0028 46.2407 20.2133 46.2407Z" fill="#FCC89F"/>
<path d="M44.6082 45.2251C42.8487 45.2251 41.4105 46.6613 41.4105 48.4207C41.4105 50.1802 42.8487 51.6183 44.6082 51.6183C46.3676 51.6183 47.8038 50.1802 47.8038 48.4207C47.8038 46.6613 46.3676 45.2251 44.6082 45.2251ZM44.6082 46.2407C45.8187 46.2407 46.7882 47.2101 46.7882 48.4207C46.7882 49.6313 45.8187 50.6027 44.6082 50.6027C43.3976 50.6027 42.4261 49.6313 42.4261 48.4207C42.4261 47.2101 43.3976 46.2407 44.6082 46.2407Z" fill="#FCC89F"/>
<path d="M17.6743 35.2176V42.8348H24.2759V41.8192H18.6899V35.2176H17.6743Z" fill="#FCC89F"/>
</svg>
