<svg width="49" height="49" viewBox="0 0 49 49" fill="none" xmlns="http://www.w3.org/2000/svg">
<g clip-path="url(#clip0_367_58)">
<path d="M41.824 7.17589C37.1966 2.54847 31.0441 0 24.4999 0C21.2691 0 18.1288 0.619292 15.1667 1.84065C14.7324 2.01981 14.5255 2.51708 14.7045 2.95138C14.8836 3.38568 15.3811 3.59287 15.8154 3.41362C18.5707 2.27763 21.4927 1.7015 24.4999 1.7015C37.071 1.7015 47.2983 11.9289 47.2983 24.5C47.2983 37.0711 37.071 47.2985 24.5 47.2985C11.929 47.2985 1.7015 37.0711 1.7015 24.5C1.7015 20.4116 2.79596 16.4017 4.86668 12.9037C6.87777 9.50625 9.75077 6.67249 13.1747 4.70877C13.5823 4.47497 13.7232 3.95511 13.4894 3.54761C13.2556 3.14001 12.7358 2.99913 12.3282 3.23284C8.64962 5.34251 5.56311 8.38701 3.40252 12.037C1.17647 15.7973 0 20.1069 0 24.5C0 31.0442 2.54847 37.1967 7.17598 41.8241C11.8034 46.4515 17.9558 49 24.5001 49C31.0444 49 37.1968 46.4515 41.8242 41.8241C46.4516 37.1967 49.0001 31.0442 49.0001 24.5C48.9998 17.9558 46.4514 11.8033 41.824 7.17589Z" fill="#BC9B6A"/>
<path d="M40.0272 20.428C39.9082 19.9735 39.4434 19.7012 38.9889 19.8202C38.5343 19.9391 38.2622 20.4039 38.3811 20.8586C38.6903 22.0406 38.847 23.2658 38.847 24.5001C38.847 25.4744 38.749 26.4475 38.5556 27.3925C38.4613 27.8529 38.7582 28.3024 39.2185 28.3966C39.2761 28.4084 39.3334 28.4141 39.39 28.4141C39.7855 28.414 40.14 28.1363 40.2224 27.7335C40.4387 26.6766 40.5484 25.5886 40.5484 24.5001C40.5485 23.1205 40.3731 21.7506 40.0272 20.428Z" fill="#BC9B6A"/>
<path d="M38.9557 29.2812C38.5189 29.1089 38.0246 29.3234 37.8521 29.7606C36.8076 32.4095 35.0134 34.6708 32.6634 36.2998C30.2596 37.9661 27.4366 38.8471 24.4999 38.8471C23.3872 38.8471 22.2794 38.7195 21.207 38.4675C20.7499 38.3604 20.2916 38.6438 20.1842 39.1013C20.0769 39.5586 20.3606 40.0166 20.8179 40.124C22.0176 40.4057 23.2564 40.5485 24.4999 40.5485C27.7846 40.5485 30.9428 39.5628 33.6328 37.6981C36.2602 35.8768 38.2666 33.3478 39.4351 30.3848C39.6074 29.9477 39.3928 29.4536 38.9557 29.2812Z" fill="#BC9B6A"/>
<path d="M28.0008 8.83451C26.8584 8.58033 25.6806 8.45141 24.5001 8.45141C15.6508 8.45141 8.45154 15.6508 8.45154 24.5C8.45154 25.7423 8.59423 26.9801 8.87541 28.1791C8.96738 28.5712 9.31688 28.8357 9.70285 28.8357C9.76716 28.8357 9.83263 28.8283 9.89799 28.813C10.3554 28.7058 10.6393 28.2479 10.5319 27.7905C10.2804 26.7187 10.1529 25.6116 10.1529 24.4999C10.1529 16.5889 16.589 10.1528 24.5 10.1528C25.5564 10.1528 26.61 10.268 27.6311 10.4953C28.0896 10.5975 28.5442 10.3084 28.6463 9.84973C28.7485 9.39112 28.4594 8.93663 28.0008 8.83451Z" fill="#BC9B6A"/>
<path d="M37.9063 10.2431H34.2435C31.1333 10.2431 28.231 11.1503 25.787 12.7138C24.5263 12.7546 18.9875 13.1425 15.2402 16.8895C15.01 17.1198 14.9314 17.4613 15.0377 17.7689C15.144 18.0766 15.4168 18.2967 15.7401 18.3357C16.4821 18.4251 18.4896 18.8524 19.7723 19.7999C18.9587 21.698 18.5076 23.7867 18.5076 25.979V28.7909H16.2625C15.7926 28.7909 15.4118 29.1718 15.4118 29.6416C15.4118 30.1114 15.7926 30.4923 16.2625 30.4923H18.5074V33.3046C18.5074 35.1806 18.1349 37.0237 17.4187 38.7312C16.2051 35.4109 13.5872 32.7929 10.2667 31.5797C11.2591 31.1626 12.2966 30.8629 13.3694 30.684C13.8328 30.6068 14.1459 30.1685 14.0687 29.705C13.9914 29.2416 13.5543 28.9282 13.0896 29.0057C11.0865 29.3395 9.19276 30.0492 7.46092 31.1153C7.15821 31.3016 7.00327 31.6566 7.07237 32.0052C7.14146 32.3538 7.42024 32.6229 7.77119 32.6795C12.1735 33.39 15.6086 36.8253 16.3188 41.2277C16.3219 41.2477 16.326 41.2679 16.3306 41.2875C16.4094 41.6228 16.6826 41.8774 17.0229 41.9324C17.0683 41.9398 17.1139 41.9435 17.159 41.9435C17.4509 41.9435 17.7267 41.7928 17.8831 41.5388C19.4044 39.069 20.2087 36.2215 20.2087 33.3043V30.492H23.0208C31.6975 30.492 38.7568 23.4329 38.7568 14.7561V11.0936C38.7571 10.624 38.3762 10.2431 37.9063 10.2431ZM17.7125 17.0188C19.5274 15.7166 21.6138 15.0648 23.2438 14.738C22.1846 15.7748 21.2708 16.9592 20.5363 18.2582C19.6333 17.6541 18.582 17.2635 17.7125 17.0188ZM37.0556 14.7564C37.0556 22.495 30.7597 28.7909 23.0209 28.7909H20.2091V25.9791C20.2091 18.2405 26.505 11.9446 34.2435 11.9446H37.0555V14.7564H37.0556Z" fill="#BC9B6A"/>
<path d="M32.7433 15.2126C31.632 14.1016 29.8246 14.1016 28.7135 15.2125C27.6026 16.3234 27.6026 18.1312 28.7135 19.2422C29.269 19.7977 29.9986 20.0755 30.7283 20.0755C31.4579 20.0755 32.1877 19.7976 32.7432 19.2423H32.7433C33.8543 18.1313 33.8543 16.3235 32.7433 15.2126ZM31.5402 18.0391C31.0927 18.4867 30.3645 18.4868 29.9167 18.0391C29.4691 17.5915 29.4691 16.8633 29.9167 16.4157C30.1405 16.1919 30.4342 16.0801 30.7282 16.0801C31.0222 16.0801 31.3162 16.1919 31.54 16.4157C31.9877 16.8632 31.9877 17.5915 31.5402 18.0391Z" fill="#BC9B6A"/>
</g>
<defs>
<clipPath id="clip0_367_58">
<rect width="49" height="49" fill="white"/>
</clipPath>
</defs>
</svg>
