<svg width="39" height="29" viewBox="0 0 39 29" fill="none" xmlns="http://www.w3.org/2000/svg">
<path d="M12.9984 29C12.7829 29 12.5763 28.9306 12.4239 28.807C12.2716 28.6834 12.186 28.5157 12.186 28.3409C12.186 28.1661 12.2716 27.9985 12.4239 27.8749C12.5763 27.7513 12.7829 27.6818 12.9984 27.6818H18.6852V2.66272C16.9291 2.79044 15.242 3.27852 13.7826 4.08101C12.3232 4.88351 11.1394 5.97404 10.3426 7.25L10.064 7.12543C9.767 7.4424 9.35897 7.67923 8.89332 7.80495L14.1796 16.9947L13.8108 17.1364H14.6232V17.7955H14.6281C13.704 18.6254 12.5756 19.2889 11.3157 19.743C10.0559 20.1971 8.6926 20.4317 7.31401 20.4317C5.93543 20.4317 4.57219 20.1971 3.31234 19.743C2.0525 19.2889 0.924073 18.6254 0 17.7955V17.1364H0.812398L0.442768 16.9979L6.12956 7.11159L6.18722 7.13334C5.86156 6.78861 5.68561 6.36615 5.68679 5.93182H7.31158C7.31158 6.10662 7.39719 6.27426 7.54954 6.39787C7.7019 6.52147 7.90852 6.59091 8.12398 6.59091C8.33944 6.59091 8.54607 6.52147 8.69842 6.39787C8.85078 6.27426 8.93638 6.10662 8.93638 5.93182H9.41894C10.3331 4.72091 11.5642 3.68783 13.0251 2.90571C14.486 2.12359 16.1409 1.61155 17.8728 1.40584C17.8728 1.37684 17.8728 1.34762 17.8728 1.31818C17.8728 0.968578 18.0439 0.633293 18.3487 0.386086C18.6534 0.138878 19.0666 0 19.4976 0C19.9285 0 20.3418 0.138878 20.6465 0.386086C20.9512 0.633293 21.1224 0.968578 21.1224 1.31818C21.1224 1.34762 21.1224 1.37684 21.1224 1.40584C22.8533 1.61209 24.5073 2.12439 25.9673 2.90648C27.4273 3.68858 28.6576 4.72137 29.5713 5.93182H30.0587C30.0587 6.10662 30.1443 6.27426 30.2967 6.39787C30.449 6.52147 30.6557 6.59091 30.8711 6.59091C31.0866 6.59091 31.2932 6.52147 31.4456 6.39787C31.5979 6.27426 31.6835 6.10662 31.6835 5.93182H33.3083C33.3092 6.36622 33.133 6.78867 32.8071 7.13334L32.8656 7.11159L38.5523 16.9979L38.1827 17.1364H38.9951V17.7955H39C38.0759 18.6254 36.9475 19.2889 35.6877 19.743C34.4278 20.1971 33.0646 20.4317 31.686 20.4317C30.3074 20.4317 28.9441 20.1971 27.6843 19.743C26.4244 19.2889 25.296 18.6254 24.3719 17.7955V17.1364H25.1843L24.8147 16.9979L30.101 7.80825C29.6348 7.68229 29.2265 7.44497 28.9295 7.12741L28.6484 7.25264C27.8527 5.97643 26.6699 4.8855 25.2111 4.08252C23.7523 3.27954 22.0657 2.79094 20.31 2.66272V27.6818H25.9967C26.2122 27.6818 26.4188 27.7513 26.5712 27.8749C26.7235 27.9985 26.8091 28.1661 26.8091 28.3409C26.8091 28.5157 26.7235 28.6834 26.5712 28.807C26.4188 28.9306 26.2122 29 25.9967 29H12.9984ZM31.6835 19.1136C33.4578 19.1122 35.1848 18.6503 36.6123 17.7955H26.758C28.1846 18.6496 29.9104 19.1115 31.6835 19.1136ZM7.31158 19.1136C9.08579 19.1121 10.8129 18.6502 12.2404 17.7955H2.38602C3.81262 18.6497 5.53848 19.1116 7.31158 19.1136ZM37.731 17.1364L32.2295 7.57164C31.8468 7.78122 31.3984 7.89783 30.9369 7.90777L25.6287 17.135L37.731 17.1364ZM13.3591 17.1364L8.05005 7.90909C7.58883 7.89902 7.14073 7.78242 6.75834 7.57296L1.26003 17.1364H13.3591Z" fill="#FCC89F"/>
</svg>
