<svg width="50" height="49" viewBox="0 0 50 49" fill="none" xmlns="http://www.w3.org/2000/svg">
<path d="M25 0C11.1919 0 0 10.7501 0 24.0132C0 37.2762 11.1919 48.0263 25 48.0263C38.8081 48.0263 50 37.2762 50 24.0132C50 10.7501 38.8081 0 25 0ZM25 2.00063C37.6358 2.00063 47.9172 11.8743 47.9172 24.0132C47.9172 29.3525 45.9261 34.2546 42.6202 38.0701C40.3361 37.1542 34.9414 35.3563 31.6041 34.4085C31.3189 34.3222 31.2739 34.3091 31.2739 33.1699C31.2739 32.2296 31.6764 31.2837 32.0692 30.4824C32.4951 29.6115 32.9992 28.1477 33.1809 26.8339C33.687 26.269 34.3767 25.1542 34.8202 23.0316C35.2091 21.1605 35.0274 20.4792 34.7694 19.8411C34.7421 19.7736 34.7147 19.7079 34.6932 19.6403C34.5955 19.2011 34.7304 16.9228 35.0625 15.153C35.2931 13.9387 35.0039 11.3582 33.263 9.22428C32.1649 7.87489 30.0625 6.21959 26.2231 5.98874L24.1168 5.99062C20.3419 6.21959 18.2395 7.87489 17.1415 9.22428C15.4025 11.3582 15.1133 13.9406 15.3439 15.153C15.68 16.9228 15.8109 19.2011 15.7171 19.6328C15.6975 19.7079 15.6682 19.7736 15.6389 19.8411C15.383 20.4811 15.1993 21.1605 15.5901 23.0316C16.0317 25.1542 16.7214 26.269 17.2294 26.8339C17.4091 28.1477 17.9132 29.6115 18.3411 30.4824C18.6518 31.1186 18.7984 31.9856 18.7984 33.2112C18.7984 34.3504 18.7534 34.3635 18.4877 34.4442C15.0352 35.4239 9.54084 37.3307 7.49121 38.1921C4.12075 34.3597 2.08284 29.4107 2.08284 24.0132C2.08284 11.8761 12.3623 2.00063 25 2.00063ZM8.99961 39.7517C11.3462 38.8321 16.0219 37.2293 19.0953 36.3585C20.8812 35.818 20.8812 34.3729 20.8812 33.2112C20.8812 32.2484 20.8128 30.8296 20.2267 29.6303C19.8242 28.8083 19.363 27.3988 19.2614 26.2972C19.2399 26.0401 19.1129 25.7998 18.9097 25.6309C18.6147 25.3832 18.0148 24.4748 17.6319 22.6412C17.329 21.1905 17.458 20.8733 17.5811 20.5655C17.6338 20.4342 17.6846 20.3047 17.7257 20.1602C17.9758 19.2818 17.6964 16.3973 17.3935 14.7964C17.2606 14.1001 17.4287 12.1239 18.7827 10.4592C19.998 8.96716 21.8367 8.13576 24.1833 7.99125L26.1587 7.98937C28.5678 8.13576 30.4064 8.96716 31.6237 10.4592C32.9797 12.1239 33.1438 14.1001 33.0109 14.7983C32.71 16.3973 32.4287 19.2837 32.6788 20.1602C32.7218 20.3066 32.7706 20.4361 32.8234 20.5674C32.9484 20.8733 33.0754 21.1924 32.7745 22.6431C32.3916 24.4767 31.7898 25.3851 31.4947 25.6328C31.2935 25.8036 31.1665 26.0419 31.143 26.2991C31.0434 27.4026 30.5842 28.8102 30.1817 29.6322C29.7206 30.5743 29.1891 31.8299 29.1891 33.1717C29.1891 34.3335 29.1891 35.7786 30.9945 36.3247C33.9351 37.1599 38.6342 38.7101 41.1157 39.6466C36.9715 43.5878 31.2778 46.0276 25 46.0276C18.7808 46.0276 13.134 43.6309 9.00156 39.7554L8.99961 39.7517Z" fill="#BC9B6A"/>
</svg>
