<svg width="22" height="28" viewBox="0 0 22 28" fill="none" xmlns="http://www.w3.org/2000/svg">
<path d="M12.9759 17.196C15.1915 17.196 17.3164 16.3158 18.8831 14.7491C20.4498 13.1824 21.33 11.0575 21.33 8.84189C21.33 6.62624 20.4498 4.50135 18.8831 2.93465C17.3164 1.36795 15.1915 0.487793 12.9759 0.487793H5.81521C5.49869 0.487793 5.19513 0.613529 4.97132 0.837343C4.74751 1.06116 4.62177 1.36471 4.62177 1.68123V14.8091H1.3398C1.02328 14.8091 0.719726 14.9348 0.495912 15.1586C0.272099 15.3825 0.146362 15.686 0.146362 16.0025C0.146362 16.3191 0.272099 16.6226 0.495912 16.8464C0.719726 17.0702 1.02328 17.196 1.3398 17.196H4.62177V20.7763H1.3398C1.02328 20.7763 0.719726 20.902 0.495912 21.1259C0.272099 21.3497 0.146362 21.6532 0.146362 21.9697C0.146362 22.2863 0.272099 22.5898 0.495912 22.8136C0.719726 23.0375 1.02328 23.1632 1.3398 23.1632H4.62177V26.7435C4.62177 27.06 4.74751 27.3636 4.97132 27.5874C5.19513 27.8112 5.49869 27.937 5.81521 27.937C6.13173 27.937 6.43529 27.8112 6.6591 27.5874C6.88292 27.3636 7.00865 27.06 7.00865 26.7435V23.1632H14.4677C14.7842 23.1632 15.0877 23.0375 15.3116 22.8136C15.5354 22.5898 15.6611 22.2863 15.6611 21.9697C15.6611 21.6532 15.5354 21.3497 15.3116 21.1259C15.0877 20.902 14.7842 20.7763 14.4677 20.7763H7.00865V17.196H12.9759ZM18.9431 8.84189C18.9412 10.4239 18.3119 11.9406 17.1932 13.0592C16.0746 14.1779 14.5579 14.8072 12.9759 14.8091H7.00865V2.87468H12.9759C14.5579 2.87657 16.0746 3.50587 17.1932 4.62452C18.3119 5.74318 18.9412 7.25987 18.9431 8.84189Z" fill="#FCC89F"/>
</svg>
