<svg width="24" height="34" viewBox="0 0 24 34" fill="none" xmlns="http://www.w3.org/2000/svg">
<path d="M12.0011 1.13301C17.9561 1.13301 22.8014 5.70865 22.8014 11.3333C22.8014 13.1221 22.2994 14.8844 21.3495 16.434L12 31.7329L2.64941 16.433C1.70062 14.8854 1.19865 13.1221 1.19865 11.3333C1.19865 5.70865 6.04502 1.13301 12.0011 1.13301ZM12.0011 15.2989C14.3174 15.2989 16.2003 13.5196 16.2003 11.3333C16.2003 9.14702 14.3163 7.36778 12.0011 7.36778C9.68486 7.36778 7.80079 9.14702 7.80079 11.3333C7.80079 13.5196 9.68486 15.2989 12.0011 15.2989ZM12.0011 0C5.3731 0 0 5.07518 0 11.3333C0 13.4006 0.588633 15.3318 1.61171 17.0005L12 34L22.3883 17.0005C23.4114 15.3318 24 13.4006 24 11.3333C24 5.07518 18.628 0 12.0011 0ZM12.0011 14.1659C10.3444 14.1659 9.00056 12.8979 9.00056 11.3333C9.00056 9.76986 10.3444 8.5008 12.0011 8.5008C13.6579 8.5008 15.0006 9.76986 15.0006 11.3333C15.0006 12.8979 13.6579 14.1659 12.0011 14.1659Z" fill="#FCC89F"/>
</svg>
