<svg width="33" height="32" viewBox="0 0 33 32" fill="none" xmlns="http://www.w3.org/2000/svg">
<path d="M32.2257 27.3628L23.0476 18.5469C22.7908 18.3004 22.3747 18.3004 22.1179 18.5469L21.1783 19.4495L19.7652 18.0922C21.5476 16.1706 22.6326 13.6397 22.6326 10.8696C22.6326 4.87612 17.5561 0 11.3163 0C5.07645 0 0 4.87612 0 10.8697C0 16.8633 5.07651 21.7393 11.3163 21.7393C14.2002 21.7393 16.8351 20.6972 18.8357 18.9852L20.2487 20.3425L19.3092 21.245C19.0524 21.4916 19.0524 21.8914 19.3092 22.138L28.4871 30.9537C28.4871 30.9537 28.4871 30.9537 28.4872 30.9537C29.0026 31.4487 29.6794 31.6962 30.3564 31.6962C31.0333 31.6962 31.7103 31.4487 32.2256 30.9537C32.725 30.4742 32.9999 29.8365 32.9999 29.1583C32.9999 28.4799 32.725 27.8423 32.2257 27.3628ZM11.3163 20.4765C5.80141 20.4765 1.31471 16.1669 1.31471 10.8697C1.31471 5.57247 5.80141 1.26288 11.3163 1.26288C16.8313 1.26288 21.318 5.57247 21.318 10.8697C21.318 16.1669 16.8313 20.4765 11.3163 20.4765ZM31.296 30.0607C30.778 30.5583 29.9351 30.5584 29.4168 30.0607L20.7037 21.6914L22.5828 19.8865L31.296 28.2557C31.5469 28.4967 31.6852 28.8172 31.6852 29.1582C31.6852 29.4991 31.547 29.8196 31.296 30.0607Z" fill="#BC9B6A"/>
</svg>
